<?xml version="1.0" encoding="UTF-8" standalone="no"?>
<!-- Created with Inkscape (http://www.inkscape.org/) -->

<svg
   version="1.1"
   id="svg2"
   xml:space="preserve"
   width="1000.9484"
   height="705.53308"
   viewBox="0 0 1000.9484 705.53308"
   xmlns="http://www.w3.org/2000/svg"
   xmlns:svg="http://www.w3.org/2000/svg">
<defs
     id="defs6"><clipPath
       clipPathUnits="userSpaceOnUse"
       id="clipPath18"><path
         d="M 0,1.206994e-5 H 959.76 V 540.00001 H 0 Z"
         id="path16" /></clipPath>
</defs>
<g
     id="g8"
     transform="matrix(1.3333333,0,0,-1.3333333,-139.52573,712.27585)"><g
       id="g10" /><g
       id="g22"><g
         id="g26"
         transform="matrix(7.874016e-5,0,0,-7.874016e-5,551.9793,270)"><path
           d="M 0,0 3672879,1"
           style="fill:none;stroke:#000000;stroke-width:63500;stroke-linecap:butt;stroke-linejoin:miter;stroke-miterlimit:8;stroke-dasharray:none;stroke-opacity:1"
           id="path28" /></g><g
         id="g30"
         transform="matrix(7.874016e-5,0,0,-7.874016e-5,118.4037,394.8328)"><path
           d="M 0,1590051 920513.3,0 H 2752366 l 920513,1590051 -920513,1590050 H 920513.3 Z"
           style="fill:none;stroke:#000000;stroke-width:63500;stroke-linecap:butt;stroke-linejoin:miter;stroke-miterlimit:8;stroke-dasharray:none;stroke-opacity:1"
           id="path32" /></g><g
         id="g34"
         transform="matrix(7.874016e-5,0,0,-7.874016e-5,335.3984,269.632)"><path
           d="M 0,1590051 920513.3,0 H 2752366 l 920513,1590051 -920513,1590050 H 920513.3 Z"
           style="fill:none;stroke:#000000;stroke-width:63500;stroke-linecap:butt;stroke-linejoin:miter;stroke-miterlimit:8;stroke-dasharray:none;stroke-opacity:1"
           id="path36" /></g><g
         id="g38"
         transform="matrix(7.874016e-5,0,0,-7.874016e-5,552.3932,394.8328)"><path
           d="M 0,1590051 920513.3,0 H 2752366 l 920513,1590051 -920513,1590050 H 920513.3 Z"
           style="fill:none;stroke:#000000;stroke-width:63500;stroke-linecap:butt;stroke-linejoin:miter;stroke-miterlimit:8;stroke-dasharray:none;stroke-opacity:1"
           id="path40" /></g><g
         id="g42"
         transform="matrix(7.874016e-5,0,0,-7.874016e-5,335.3984,520.0336)"><path
           d="M 0,1590051 920513.3,0 H 2752366 l 920513,1590051 -920513,1590050 H 920513.3 Z"
           style="fill:none;stroke:#000000;stroke-width:63500;stroke-linecap:butt;stroke-linejoin:miter;stroke-miterlimit:8;stroke-dasharray:none;stroke-opacity:1"
           id="path44" /></g><path
         d="m 321.2252,394.8328 c 0,7.8276 6.3456,14.1732 14.1732,14.1732 7.8277,0 14.1733,-6.3456 14.1733,-14.1732 0,-7.8277 -6.3456,-14.1733 -14.1733,-14.1733 -7.8276,0 -14.1732,6.3456 -14.1732,14.1733 z"
         style="fill:#000000;fill-opacity:1;fill-rule:nonzero;stroke:none"
         id="path46" /><path
         d="m 393.4335,269.632 c 0,7.8276 6.3456,14.1732 14.1733,14.1732 7.8276,0 14.1732,-6.3456 14.1732,-14.1732 0,-7.8277 -6.3456,-14.1733 -14.1732,-14.1733 -7.8277,0 -14.1733,6.3456 -14.1733,14.1733 z"
         style="fill:#000000;fill-opacity:1;fill-rule:nonzero;stroke:none"
         id="path48" /><path
         d="m 610.4283,144.4311 c 0,7.8277 6.3455,14.1732 14.1732,14.1732 7.8277,0 14.1732,-6.3455 14.1732,-14.1732 0,-7.8277 -6.3455,-14.1732 -14.1732,-14.1732 -7.8277,0 -14.1732,6.3455 -14.1732,14.1732 z"
         style="fill:#000000;fill-opacity:1;fill-rule:nonzero;stroke:none"
         id="path50" /><path
         d="m 538.22,269.632 c 0,7.8276 6.3455,14.1732 14.1732,14.1732 7.8277,0 14.1732,-6.3456 14.1732,-14.1732 0,-7.8277 -6.3455,-14.1733 -14.1732,-14.1733 -7.8277,0 -14.1732,6.3456 -14.1732,14.1733 z"
         style="fill:#000000;fill-opacity:1;fill-rule:nonzero;stroke:none"
         id="path52" /><path
         d="m 538.22,19.23032 c 0,7.82766 6.3455,14.17323 14.1732,14.17323 7.8277,0 14.1732,-6.34557 14.1732,-14.17323 0,-7.82766 -6.3455,-14.173229 -14.1732,-14.173229 -7.8277,0 -14.1732,6.345569 -14.1732,14.173229 z"
         style="fill:#000000;fill-opacity:1;fill-rule:nonzero;stroke:none"
         id="path54" /><path
         d="m 393.4336,19.23032 c 0,7.82766 6.3456,14.17323 14.1732,14.17323 7.8277,0 14.1733,-6.34557 14.1733,-14.17323 0,-7.82766 -6.3456,-14.173229 -14.1733,-14.173229 -7.8276,0 -14.1732,6.345569 -14.1732,14.173229 z"
         style="fill:#000000;fill-opacity:1;fill-rule:nonzero;stroke:none"
         id="path56" /><path
         d="m 755.2147,144.4312 c 0,7.8276 6.3456,14.1732 14.1732,14.1732 7.8277,0 14.1733,-6.3456 14.1733,-14.1732 0,-7.8277 -6.3456,-14.1732 -14.1733,-14.1732 -7.8276,0 -14.1732,6.3455 -14.1732,14.1732 z"
         style="fill:#000000;fill-opacity:1;fill-rule:nonzero;stroke:none"
         id="path58" /><path
         d="m 827.0091,269.632 c 0,7.8276 6.3456,14.1732 14.1732,14.1732 7.8277,0 14.1733,-6.3456 14.1733,-14.1732 0,-7.8277 -6.3456,-14.1733 -14.1733,-14.1733 -7.8276,0 -14.1732,6.3456 -14.1732,14.1733 z"
         style="fill:#000000;fill-opacity:1;fill-rule:nonzero;stroke:none"
         id="path60" /><path
         d="m 755.2147,394.8757 c 0,7.8276 6.3456,14.1732 14.1732,14.1732 7.8277,0 14.1733,-6.3456 14.1733,-14.1732 0,-7.8277 -6.3456,-14.1733 -14.1733,-14.1733 -7.8276,0 -14.1732,6.3456 -14.1732,14.1733 z"
         style="fill:#000000;fill-opacity:1;fill-rule:nonzero;stroke:none"
         id="path62" /><path
         d="m 610.0144,394.8757 c 0,7.8276 6.3456,14.1732 14.1732,14.1732 7.8277,0 14.1733,-6.3456 14.1733,-14.1732 0,-7.8277 -6.3456,-14.1733 -14.1733,-14.1733 -7.8276,0 -14.1732,6.3456 -14.1732,14.1733 z"
         style="fill:#000000;fill-opacity:1;fill-rule:nonzero;stroke:none"
         id="path64" /><path
         d="m 176.4387,394.8757 c 0,7.8276 6.3456,14.1732 14.1733,14.1732 7.8276,0 14.1732,-6.3456 14.1732,-14.1732 0,-7.8277 -6.3456,-14.1733 -14.1732,-14.1733 -7.8277,0 -14.1733,6.3456 -14.1733,14.1733 z"
         style="fill:#000000;fill-opacity:1;fill-rule:nonzero;stroke:none"
         id="path66" /><path
         d="m 104.6443,269.632 c 0,7.8276 6.3456,14.1732 14.1733,14.1732 7.8276,0 14.1732,-6.3456 14.1732,-14.1732 0,-7.8277 -6.3456,-14.1733 -14.1732,-14.1733 -7.8277,0 -14.1733,6.3456 -14.1733,14.1733 z"
         style="fill:#000000;fill-opacity:1;fill-rule:nonzero;stroke:none"
         id="path68" /><path
         d="m 176.4387,144.4312 c 0,7.8276 6.3456,14.1732 14.1733,14.1732 7.8276,0 14.1732,-6.3456 14.1732,-14.1732 0,-7.8277 -6.3456,-14.1732 -14.1732,-14.1732 -7.8277,0 -14.1733,6.3455 -14.1733,14.1732 z"
         style="fill:#000000;fill-opacity:1;fill-rule:nonzero;stroke:none"
         id="path70" /><path
         d="m 321.2252,144.4312 c 0,7.8276 6.3456,14.1732 14.1732,14.1732 7.8277,0 14.1733,-6.3456 14.1733,-14.1732 0,-7.8277 -6.3456,-14.1732 -14.1733,-14.1732 -7.8276,0 -14.1732,6.3455 -14.1732,14.1732 z"
         style="fill:#000000;fill-opacity:1;fill-rule:nonzero;stroke:none"
         id="path72" /><path
         d="m 393.4335,519.5596 c 0,7.8277 6.3456,14.1732 14.1733,14.1732 7.8276,0 14.1732,-6.3455 14.1732,-14.1732 0,-7.8276 -6.3456,-14.1732 -14.1732,-14.1732 -7.8277,0 -14.1733,6.3456 -14.1733,14.1732 z"
         style="fill:#000000;fill-opacity:1;fill-rule:nonzero;stroke:none"
         id="path74" /><path
         d="m 538.22,520.0336 c 0,7.8277 6.3455,14.1733 14.1732,14.1733 7.8277,0 14.1732,-6.3456 14.1732,-14.1733 0,-7.8276 -6.3455,-14.1732 -14.1732,-14.1732 -7.8277,0 -14.1732,6.3456 -14.1732,14.1732 z"
         style="fill:#000000;fill-opacity:1;fill-rule:nonzero;stroke:none"
         id="path76" /><g
         id="g78"
         transform="matrix(7.874016e-5,0,0,7.874016e-5,408.0206,19.96642)"><path
           d="M 0,0 1833532,3175426"
           style="fill:none;stroke:#000000;stroke-width:63500;stroke-linecap:butt;stroke-linejoin:miter;stroke-miterlimit:8;stroke-dasharray:none;stroke-opacity:1"
           id="path80" /></g><g
         id="g82"
         transform="matrix(7.874016e-5,0,0,7.874016e-5,406.7271,20.0723)"><path
           d="M 0,0 2761749,1579357"
           style="fill:none;stroke:#000000;stroke-width:63500;stroke-linecap:butt;stroke-linejoin:miter;stroke-miterlimit:8;stroke-dasharray:none;stroke-opacity:1"
           id="path84" /></g><g
         id="g86"
         transform="matrix(-7.874016e-5,0,0,7.874016e-5,551.1217,19.2303)"><path
           d="M 0,0 1822639,3195466"
           style="fill:none;stroke:#000000;stroke-width:63500;stroke-linecap:butt;stroke-linejoin:miter;stroke-miterlimit:8;stroke-dasharray:none;stroke-opacity:1"
           id="path88" /></g><g
         id="g90"
         transform="matrix(-7.874016e-5,0,0,7.874016e-5,551.9793,20.44009)"><path
           d="M 0,0 10892,3186122"
           style="fill:none;stroke:#000000;stroke-width:63500;stroke-linecap:butt;stroke-linejoin:miter;stroke-miterlimit:8;stroke-dasharray:none;stroke-opacity:1"
           id="path92" /></g><g
         id="g94"
         transform="matrix(7.874016e-5,0,0,7.874016e-5,349.2042,168.4993)"><path
           d="M 0,0 1,537735"
           style="fill:none;stroke:#000000;stroke-width:63500;stroke-linecap:butt;stroke-linejoin:miter;stroke-miterlimit:8;stroke-dasharray:none;stroke-opacity:1"
           id="path96" /></g><g
         id="g98"
         transform="matrix(-7.874016e-5,0,0,7.874016e-5,337.6879,144.4312)"><path
           d="M 0,0 1,1266232"
           style="fill:none;stroke:#000000;stroke-width:63500;stroke-linecap:butt;stroke-linejoin:miter;stroke-miterlimit:8;stroke-dasharray:none;stroke-opacity:1"
           id="path100" /></g><g
         id="g102"
         transform="matrix(-7.874016e-5,0,0,7.874016e-5,326.1717,144.4312)"><path
           d="M 0,0 1,1696537"
           style="fill:none;stroke:#000000;stroke-width:63500;stroke-linecap:butt;stroke-linejoin:miter;stroke-miterlimit:8;stroke-dasharray:none;stroke-opacity:1"
           id="path104" /></g><g
         id="g106"
         transform="matrix(-7.874016e-5,0,0,7.874016e-5,314.6553,144.4312)"><path
           d="M 0,0 2,2080739"
           style="fill:none;stroke:#000000;stroke-width:63500;stroke-linecap:butt;stroke-linejoin:miter;stroke-miterlimit:8;stroke-dasharray:none;stroke-opacity:1"
           id="path108" /></g><g
         id="g110"
         transform="matrix(-7.874016e-5,0,0,7.874016e-5,303.139,144.4312)"><path
           d="M 0,0 3,2180632"
           style="fill:none;stroke:#000000;stroke-width:63500;stroke-linecap:butt;stroke-linejoin:miter;stroke-miterlimit:8;stroke-dasharray:none;stroke-opacity:1"
           id="path112" /></g><g
         id="g114"
         transform="matrix(-7.874016e-5,0,0,7.874016e-5,291.6228,144.4312)"><path
           d="M 0,0 4,2080739"
           style="fill:none;stroke:#000000;stroke-width:63500;stroke-linecap:butt;stroke-linejoin:miter;stroke-miterlimit:8;stroke-dasharray:none;stroke-opacity:1"
           id="path116" /></g><g
         id="g118"
         transform="matrix(-7.874016e-5,0,0,7.874016e-5,280.1064,144.4312)"><path
           d="M 0,0 5,1770050"
           style="fill:none;stroke:#000000;stroke-width:63500;stroke-linecap:butt;stroke-linejoin:miter;stroke-miterlimit:8;stroke-dasharray:none;stroke-opacity:1"
           id="path120" /></g><g
         id="g122"
         transform="matrix(-7.874016e-5,0,0,7.874016e-5,268.5901,144.4312)"><path
           d="M 0,0 6,1350756"
           style="fill:none;stroke:#000000;stroke-width:63500;stroke-linecap:butt;stroke-linejoin:miter;stroke-miterlimit:8;stroke-dasharray:none;stroke-opacity:1"
           id="path124" /></g><g
         id="g126"
         transform="matrix(-7.874016e-5,0,0,7.874016e-5,257.0739,144.4312)"><path
           d="M 0,0 7,951186"
           style="fill:none;stroke:#000000;stroke-width:63500;stroke-linecap:butt;stroke-linejoin:miter;stroke-miterlimit:8;stroke-dasharray:none;stroke-opacity:1"
           id="path128" /></g><g
         id="g130"
         transform="matrix(7.874016e-5,0,0,7.874016e-5,245.5576,144.4312)"><path
           d="M 0,0 1,566985"
           style="fill:none;stroke:#000000;stroke-width:63500;stroke-linecap:butt;stroke-linejoin:miter;stroke-miterlimit:8;stroke-dasharray:none;stroke-opacity:1"
           id="path132" /></g><g
         id="g134"
         transform="matrix(-7.874016e-5,0,0,7.874016e-5,234.0413,144.4312)"><path
           d="M 0,0 1,305665"
           style="fill:none;stroke:#000000;stroke-width:63500;stroke-linecap:butt;stroke-linejoin:miter;stroke-miterlimit:8;stroke-dasharray:none;stroke-opacity:1"
           id="path136" /></g><g
         id="g138"
         transform="matrix(-7.874016e-5,0,0,7.874016e-5,222.525,144.4312)"><path
           d="M 0,0 8,180000"
           style="fill:none;stroke:#000000;stroke-width:63500;stroke-linecap:butt;stroke-linejoin:miter;stroke-miterlimit:8;stroke-dasharray:none;stroke-opacity:1"
           id="path140" /></g><g
         id="g142"
         transform="matrix(-7.874016e-5,0,0,7.874016e-5,211.0087,144.4312)"><path
           d="M 0,0 1,67522"
           style="fill:none;stroke:#000000;stroke-width:63500;stroke-linecap:butt;stroke-linejoin:miter;stroke-miterlimit:8;stroke-dasharray:none;stroke-opacity:1"
           id="path144" /></g><g
         id="g146"
         transform="matrix(7.874016e-5,0,0,-7.874016e-5,599.8301,332.4068)"><path
           d="M 0,802356.9 C 119060.7,352791.5 169109.9,-88146.73 209477.8,15214.87 249845.6,118576.5 212751.5,1351963 242208.5,1422528 271665.6,1493093 341492,482331.6 386223.3,438601.8 430954.5,394872 463686.8,1194932 510600.4,1160148 557514.1,1125363 631703.9,143424.9 667708.4,229890.5 703712.8,316356 689529.9,1611362 726624.1,1678945 c 37095.6,67583 108011.8,-917337.2 163653.7,-1043557.8 55642,-126220.5 117831.2,273313.4 170201.2,286233.2 52370,12919.9 91645,-202748.3 144015,-208711.3 52370,-5962.9 124377,160012.7 170201,172932.5 45824,12919.9 104738,-95412 104738,-95412 v 0"
           style="fill:none;stroke:#000000;stroke-width:63500;stroke-linecap:butt;stroke-linejoin:miter;stroke-miterlimit:8;stroke-dasharray:none;stroke-opacity:1"
           id="path148" /></g><g
         id="g150"
         transform="matrix(7.874016e-5,0,0,-7.874016e-5,556.6177,276.2844)"><path
           d="M 0,30465.73 C 55641.86,-95754.98 89078.28,213921 135695.9,208869.2 182313.5,203817.4 227340.6,6120.521 279710.3,157.61 332080,-5805.301 404087.2,160170.5 449911.1,173090.3 495735,186010.2 554649,77678.22 554649,77678.22 v 0"
           style="fill:none;stroke:#000000;stroke-width:63500;stroke-linecap:butt;stroke-linejoin:miter;stroke-miterlimit:8;stroke-dasharray:none;stroke-opacity:1"
           id="path152" /></g><g
         id="g154"
         transform="matrix(7.874016e-5,0,0,-7.874016e-5,716.3209,332.4068)"><path
           d="M 0,802356.9 C 119060.7,352791.5 169109.9,-88146.73 209477.8,15214.87 249845.6,118576.5 212751.5,1351963 242208.5,1422528 271665.6,1493093 341492,482331.6 386223.3,438601.8 430954.5,394872 463686.8,1194932 510600.4,1160148 557514.1,1125363 631703.9,143424.9 667708.4,229890.5 703712.8,316356 689529.9,1611362 726624.1,1678945 c 37095.6,67583 108011.8,-917337.2 163653.7,-1043557.8 55642,-126220.5 117831.2,273313.4 170201.2,286233.2 52370,12919.9 91645,-202748.3 144015,-208711.3 52370,-5962.9 124377,160012.7 170201,172932.5 45824,12919.9 104738,-95412 104738,-95412 v 0"
           style="fill:none;stroke:#000000;stroke-width:63500;stroke-linecap:butt;stroke-linejoin:miter;stroke-miterlimit:8;stroke-dasharray:none;stroke-opacity:1"
           id="path156" /></g><g
         id="g158"
         transform="matrix(7.874016e-5,0,0,-7.874016e-5,360.429,530.3324)"><path
           d="m 0,2223750 c 145854.6,-112350 872084.9,167878 993629.8,61986 121544.2,-105893 -393502.5,-575954 -264361,-697342 129141.4,-121390 905510.2,96852 1039209.2,-30994 133700,-127845 -361596,-596615.6 -237012,-736084.8 124583,-139469.1 835620,36158 984513,-100727.4 C 2664872,583702.2 2222752,131720.4 2424820,0"
           style="fill:none;stroke:#000000;stroke-width:63500;stroke-linecap:butt;stroke-linejoin:miter;stroke-miterlimit:8;stroke-dasharray:none;stroke-opacity:1"
           id="path160" /></g><g
         id="g162"
         transform="matrix(7.874016e-5,0,0,-7.874016e-5,368.7695,511.4414)"><path
           d="m 0,2211502 c 173522.7,16920 684231.2,178084 768204.9,74232 83973.9,-103851 -393502.3,-575953 -264360.9,-697342 129141.4,-121389 905510,96853 1039209,-30993 133700,-127845 -361596,-596615.2 -237012,-736084.3 124583,-139469.1 835620,36157.9 984513,-100727.5 C 2439446,583701.8 1997327,131720.3 2199395,0"
           style="fill:none;stroke:#000000;stroke-width:63500;stroke-linecap:butt;stroke-linejoin:miter;stroke-miterlimit:8;stroke-dasharray:none;stroke-opacity:1"
           id="path164" /></g></g></g>
</svg>
